<?xml version="1.0" encoding="utf-8"?>
<!-- Generator: Adobe Illustrator 27.5.0, SVG Export Plug-In . SVG Version: 6.00 Build 0)  -->
<svg version="1.1" id="Capa_2" xmlns="http://www.w3.org/2000/svg" xmlns:xlink="http://www.w3.org/1999/xlink" x="0px" y="0px"
	 viewBox="0 0 2122 2122" style="enable-background:new 0 0 2122 2122;" xml:space="preserve">
<path style="fill:#F7A531;" d="M1078.725,332.887L896.581,687.424c-16.666,32.438-48.226,54.598-84.394,59.26l-395.321,50.945
	c-91.082,11.738-129.167,122.823-64.447,187.978l280.899,282.788c25.7,25.874,37.023,62.736,30.279,98.575l-73.707,391.714
	c-7.395,39.301,6.235,74.862,30.745,99.072c6.752-1.936,13.492-4.489,20.152-7.854l355.749-179.764
	c32.55-16.447,71.107-15.825,103.108,1.664l349.766,191.146c80.586,44.041,176.693-23.443,162.631-114.195l-61.033-393.889
	c-5.584-36.038,6.923-72.517,33.444-97.547l289.875-273.58c66.788-63.033,32.305-175.289-58.351-189.959l-393.471-63.672
	c-35.999-5.825-66.828-28.992-82.437-61.951l-170.613-360.228c-5.77-12.183-13.257-22.567-21.908-31.247
	C1119.522,284.315,1094.074,303.007,1078.725,332.887z"/>
<path style="fill:#E86810;" d="M221.457,924.091c1.225,2.755,2.616,5.466,4.094,8.153c1.388,2.523,2.849,5.024,4.464,7.476
	c1.111,1.687,2.276,3.356,3.497,5.003c3.254,4.396,6.897,8.647,10.942,12.719l280.9,282.789
	c6.425,6.468,11.952,13.624,16.522,21.277c2.285,3.828,4.332,7.779,6.131,11.833c2.215,4.987,4.054,10.128,5.507,15.378
	c3.632,13.126,4.844,26.936,3.441,40.75c-0.28,2.763-0.666,5.526-1.157,8.283l-0.165,1.054l-73.708,391.715
	c-0.511,2.716-0.909,5.411-1.223,8.088c-0.101,0.867-0.143,1.719-0.223,2.581c-0.17,1.801-0.336,3.601-0.42,5.382
	c-0.047,1.027-0.04,2.04-0.06,3.061c-0.03,1.594-0.06,3.188-0.023,4.765c0.025,1.078,0.096,2.143,0.153,3.213
	c0.079,1.495,0.166,2.987,0.305,4.464c0.103,1.091,0.238,2.171,0.373,3.251c0.179,1.431,0.373,2.856,0.606,4.268
	c0.179,1.078,0.379,2.147,0.589,3.214c0.273,1.388,0.569,2.765,0.894,4.131c0.251,1.054,0.513,2.102,0.794,3.143
	c0.365,1.354,0.762,2.692,1.179,4.024c0.317,1.013,0.633,2.026,0.978,3.025c0.46,1.332,0.96,2.643,1.469,3.95
	c0.375,0.963,0.742,1.931,1.142,2.88c0.561,1.326,1.169,2.624,1.78,3.922c0.418,0.888,0.818,1.787,1.259,2.662
	c0.688,1.364,1.43,2.694,2.172,4.024c0.43,0.77,0.834,1.557,1.281,2.315c0.946,1.604,1.954,3.166,2.977,4.716l0.863,1.352
	c1.341,1.968,2.743,3.887,4.204,5.76c0.452,0.581,0.941,1.129,1.405,1.7c1.037,1.278,2.076,2.554,3.168,3.784
	c0.63,0.71,1.296,1.386,1.943,2.08c0.976,1.045,1.948,2.09,2.961,3.097c0.725,0.72,1.479,1.409,2.224,2.109
	c0.987,0.927,1.973,1.853,2.991,2.744c0.799,0.698,1.617,1.37,2.435,2.047c1.013,0.838,2.03,1.667,3.072,2.469
	c0.856,0.66,1.727,1.299,2.602,1.934c1.049,0.761,2.106,1.508,3.181,2.233c0.905,0.611,1.818,1.208,2.74,1.792
	c1.088,0.69,2.189,1.356,3.3,2.009c0.944,0.554,1.891,1.103,2.852,1.63c1.133,0.621,2.282,1.211,3.437,1.794
	c0.972,0.49,1.943,0.984,2.93,1.447c1.188,0.557,2.396,1.073,3.605,1.589c0.983,0.42,1.962,0.852,2.958,1.244
	c1.266,0.498,2.553,0.943,3.838,1.395c0.969,0.341,1.929,0.704,2.909,1.018c1.427,0.457,2.877,0.85,4.325,1.25
	c0.861,0.237,1.711,0.51,2.579,0.727c2.288,0.572,4.599,1.075,6.93,1.499c0.762,0.139,1.537,0.223,2.303,0.345
	c1.615,0.259,3.229,0.519,4.861,0.705c1.021,0.116,2.052,0.173,3.079,0.26c1.392,0.119,2.782,0.246,4.184,0.31
	c1.106,0.051,2.22,0.048,3.331,0.065c1.339,0.02,2.677,0.043,4.023,0.012c1.144-0.026,2.293-0.097,3.442-0.16
	c1.325-0.072,2.65-0.151,3.98-0.273c1.165-0.107,2.331-0.249,3.498-0.395c1.324-0.166,2.646-0.348,3.973-0.564
	c1.174-0.191,2.35-0.408,3.526-0.639c1.326-0.261,2.65-0.55,3.976-0.863c1.174-0.277,2.35-0.568,3.524-0.886
	c0.537-0.145,1.073-0.25,1.609-0.404l-0.052-0.055c-24.51-24.21-38.141-59.771-30.745-99.072l73.707-391.714
	c6.745-35.839-4.579-72.702-30.279-98.575L352.419,985.607c-64.72-65.155-26.634-176.24,64.447-187.978l395.321-50.945
	c36.169-4.661,67.728-26.821,84.394-59.26l182.144-354.537c15.35-29.879,40.798-48.571,68.822-56.206l0.06-0.02l-0.92-0.869
	c-0.716-0.702-1.449-1.38-2.181-2.06c-1.054-0.977-2.12-1.935-3.205-2.864c-0.765-0.654-1.535-1.3-2.314-1.93
	c-1.119-0.905-2.257-1.775-3.406-2.63c-0.767-0.571-1.53-1.151-2.309-1.699c-1.289-0.908-2.605-1.764-3.926-2.61
	c-0.665-0.425-1.317-0.876-1.99-1.286c-1.974-1.204-3.979-2.348-6.016-3.418c-0.513-0.269-1.041-0.502-1.557-0.763
	c-1.57-0.793-3.149-1.566-4.751-2.28c-0.814-0.363-1.642-0.689-2.463-1.032c-1.335-0.557-2.672-1.101-4.024-1.604
	c-0.893-0.332-1.794-0.642-2.695-0.951c-1.316-0.451-2.637-0.879-3.967-1.28c-0.912-0.275-1.828-0.545-2.746-0.796
	c-1.377-0.378-2.763-0.716-4.152-1.04c-0.867-0.202-1.732-0.417-2.603-0.598c-1.612-0.336-3.232-0.616-4.856-0.881
	c-0.655-0.107-1.304-0.24-1.96-0.335c-2.26-0.328-4.528-0.588-6.802-0.779c-0.618-0.052-1.239-0.066-1.858-0.108
	c-1.684-0.113-3.369-0.208-5.055-0.246c-0.866-0.02-1.732-0.006-2.598-0.006c-1.452,0-2.903,0.016-4.353,0.071
	c-0.923,0.036-1.845,0.09-2.766,0.148c-1.412,0.089-2.821,0.205-4.229,0.346c-0.913,0.092-1.826,0.186-2.737,0.3
	c-1.466,0.183-2.925,0.409-4.384,0.65c-0.828,0.137-1.658,0.259-2.484,0.414c-1.777,0.335-3.544,0.728-5.306,1.148
	c-0.488,0.117-0.983,0.208-1.47,0.331c-2.238,0.567-4.459,1.207-6.663,1.914c-0.615,0.197-1.218,0.431-1.829,0.639
	c-1.593,0.541-3.179,1.102-4.749,1.718c-0.795,0.311-1.579,0.653-2.368,0.983c-1.377,0.578-2.746,1.173-4.102,1.809
	c-0.822,0.385-1.639,0.786-2.453,1.192c-1.32,0.658-2.625,1.348-3.921,2.062c-0.789,0.435-1.577,0.868-2.356,1.324
	c-1.354,0.791-2.684,1.628-4.008,2.482c-0.676,0.435-1.36,0.853-2.028,1.304c-1.716,1.161-3.4,2.383-5.058,3.651l-0.747,0.547
	c-1.89,1.473-3.736,3.026-5.543,4.64c-0.538,0.48-1.054,0.998-1.584,1.491c-1.256,1.168-2.5,2.354-3.71,3.592
	c-0.633,0.648-1.247,1.323-1.867,1.99c-1.075,1.156-2.132,2.333-3.166,3.547c-0.626,0.735-1.244,1.483-1.854,2.24
	c-1,1.239-1.972,2.511-2.928,3.807c-0.569,0.771-1.141,1.537-1.694,2.328c-1.003,1.435-1.966,2.92-2.915,4.421
	c-0.443,0.702-0.905,1.383-1.336,2.099c-1.352,2.245-2.657,4.547-3.883,6.935L788.616,659.259
	c-14.282,27.798-39.516,48.008-69.2,56.167c-2.478,0.681-4.983,1.288-7.514,1.807c-2.533,0.52-5.092,0.952-7.679,1.286
	l-81.011,10.44l-314.31,40.505c-42.695,5.502-73.745,32.834-88.02,67.032c-1.903,4.56-3.509,9.241-4.803,14.01
	c-1.354,4.987-2.348,10.073-3.01,15.21c-0.776,6.025-1.071,12.125-0.856,18.233c0.215,6.108,0.938,12.225,2.198,18.287
	C215.952,909.644,218.286,916.969,221.457,924.091z"/>
<path style="fill:#FFD95A;" d="M1233.421,846.135l-105.493-222.733c-24.305-51.319-96.906-52.49-122.855-1.982L892.452,840.634
	c-10.304,20.056-29.818,33.758-52.181,36.641l-6.844,0.882c12.264,55.999,35.387,109.379,67.633,157.657
	c100.516,150.494,282.555,253.96,464.776,247.753l-1.988-12.832c-3.452-22.283,4.281-44.838,20.679-60.314l179.233-169.158
	c41.296-38.974,19.975-108.383-36.079-117.454l-243.287-39.369C1262.134,880.838,1243.073,866.514,1233.421,846.135z"/>
<path style="fill:#FDC835;" d="M901.059,1035.814c-32.246-48.278-55.369-101.658-67.633-157.657l0,0l-237.588,30.618
	c-12.319,1.588-23.07,6.115-31.931,12.641c-3.798,2.797-7.248,5.961-10.326,9.418c-2.052,2.304-3.939,4.74-5.651,7.284
	c-6.853,10.174-10.935,22.082-11.768,34.32c-0.302,4.448-0.161,8.94,0.419,13.409c0.217,1.678,0.485,3.354,0.832,5.021
	c0.635,3.054,1.488,6.086,2.567,9.072c1.079,2.986,2.384,5.927,3.921,8.801c1.539,2.874,3.309,5.68,5.322,8.398
	c2.012,2.718,4.264,5.347,6.765,7.865l173.684,174.851c9.932,9.998,16.391,22.651,18.821,36.145
	c0.364,2.024,0.638,4.067,0.819,6.123c0.544,6.167,0.254,12.45-0.919,18.682l-45.574,242.202
	c-0.984,5.231-1.366,10.356-1.209,15.327c0.053,1.656,0.166,3.296,0.336,4.917c0.681,6.484,2.285,12.665,4.664,18.433
	c0.743,1.803,1.562,3.565,2.452,5.283c1.781,3.437,3.845,6.699,6.157,9.759c1.156,1.53,2.375,3.009,3.651,4.435
	c1.021,1.14,2.079,2.247,3.171,3.316c4.369,4.278,9.289,7.976,14.613,10.982c2.663,1.503,5.426,2.833,8.272,3.976
	c8.536,3.429,17.815,5.178,27.335,4.867c4.76-0.155,9.581-0.824,14.398-2.056c4.818-1.231,9.634-3.023,14.385-5.424l219.964-111.151
	c1.783-0.901,3.595-1.714,5.432-2.443c3.672-1.458,7.442-2.576,11.261-3.373c1.91-0.398,3.833-0.716,5.762-0.956
	c3.173-0.394,6.359-0.633,9.549-0.582c2.737,0.044,5.472,0.252,8.189,0.624c8.15,1.115,16.141,3.704,23.561,7.759l216.264,118.188
	c1.557,0.851,3.124,1.634,4.697,2.352c1.574,0.718,3.154,1.37,4.739,1.959c7.926,2.941,15.967,4.282,23.827,4.232
	c4.474-0.029,8.883-0.529,13.185-1.421c0.54-0.112,1.076-0.235,1.614-0.36c2.698-0.629,5.356-1.396,7.945-2.34
	c2.881-1.051,5.686-2.291,8.395-3.707c2.71-1.416,5.324-3.009,7.823-4.764s4.885-3.673,7.137-5.74
	c1.126-1.034,2.219-2.105,3.276-3.212c1.289-1.35,2.505-2.77,3.683-4.222c1.721-2.121,3.34-4.332,4.802-6.657
	c8.215-13.06,12.151-29.191,9.434-46.726l-35.75-230.714C1183.615,1289.773,1001.575,1186.307,901.059,1035.814z"/>
<path style="fill:#FFFFFF;" d="M1100.565,482.909c9.665,29.093,22.351,56.949,36.763,83.783
	c6.844,12.743,14.077,25.256,21.561,37.56c9.068,14.91,18.885,29.963,32.95,39.712c14.064,9.748,33.467,13.044,47.684,3.542
	c13.568-9.068,19.105-27.142,19.912-44.001c1.416-29.582-8.519-58.415-19.928-85.506c-18.695-44.394-42.09-87.189-74.075-122.25
	c-8.328-9.13-17.416-17.849-28.373-23.095c-10.957-5.246-24.13-6.619-34.947-1.062
	C1066.516,389.881,1091.457,455.491,1100.565,482.909z"/>
<path style="fill:#FFFFFF;" d="M1248.319,674.214c-21.305,11.165-6.377,51.219-0.926,67.958
	c5.785,17.76,13.378,34.767,22.004,51.148c4.096,7.779,8.425,15.418,12.904,22.931c5.427,9.102,11.303,18.292,19.721,24.243
	c8.417,5.951,20.031,7.963,28.54,2.163c8.12-5.536,11.435-16.571,11.918-26.862c0.848-18.059-5.099-35.662-11.927-52.201
	c-11.19-27.103-25.192-53.228-44.336-74.632c-4.984-5.573-10.424-10.897-16.982-14.099
	C1262.678,671.659,1254.794,670.821,1248.319,674.214z"/>
</svg>
