<svg width="3180" height="1128" viewBox="0 0 3180 1128" fill="none" xmlns="http://www.w3.org/2000/svg">
<g filter="url(#filter0_d_4_126)">
<path d="M334.825 1117L1076.48 781M657.772 1117L1228.56 781M971.331 1117L1390.04 781M1281.13 1117L1542.12 781M1600.33 1117L1703.59 781M1908.25 1117L1851.92 781M2221.81 1117L2007.77 781M2546.64 1117L2161.73 781M2854.56 1117L2323.2 781M3170 1117L2479.04 781M10 1117L915.003 781" stroke="#E323CA" stroke-opacity="0.32" stroke-width="4" shape-rendering="crispEdges"/>
</g>
<g filter="url(#filter1_d_4_126)">
<path d="M462 802L539.356 781H2670.68L2735 799.48L462 802Z" fill="#E323CA" fill-opacity="0.71" shape-rendering="crispEdges"/>
</g>
<rect x="500" width="2596" height="781" fill="url(#paint0_linear_4_126)"/>
<defs>
<filter id="filter0_d_4_126" x="0.803894" y="770.625" width="3178.57" height="356.75" filterUnits="userSpaceOnUse" color-interpolation-filters="sRGB">
<feFlood flood-opacity="0" result="BackgroundImageFix"/>
<feColorMatrix in="SourceAlpha" type="matrix" values="0 0 0 0 0 0 0 0 0 0 0 0 0 0 0 0 0 0 127 0" result="hardAlpha"/>
<feOffset/>
<feGaussianBlur stdDeviation="4.25"/>
<feComposite in2="hardAlpha" operator="out"/>
<feColorMatrix type="matrix" values="0 0 0 0 0.713976 0 0 0 0 0.393631 0 0 0 0 0.994277 0 0 0 0.61 0"/>
<feBlend mode="normal" in2="BackgroundImageFix" result="effect1_dropShadow_4_126"/>
<feBlend mode="normal" in="SourceGraphic" in2="effect1_dropShadow_4_126" result="shape"/>
</filter>
<filter id="filter1_d_4_126" x="441.6" y="754.6" width="2313.8" height="61.8" filterUnits="userSpaceOnUse" color-interpolation-filters="sRGB">
<feFlood flood-opacity="0" result="BackgroundImageFix"/>
<feColorMatrix in="SourceAlpha" type="matrix" values="0 0 0 0 0 0 0 0 0 0 0 0 0 0 0 0 0 0 127 0" result="hardAlpha"/>
<feOffset dy="-6"/>
<feGaussianBlur stdDeviation="10.2"/>
<feComposite in2="hardAlpha" operator="out"/>
<feColorMatrix type="matrix" values="0 0 0 0 0.713976 0 0 0 0 0.393631 0 0 0 0 0.994277 0 0 0 1 0"/>
<feBlend mode="normal" in2="BackgroundImageFix" result="effect1_dropShadow_4_126"/>
<feBlend mode="normal" in="SourceGraphic" in2="effect1_dropShadow_4_126" result="shape"/>
</filter>
<linearGradient id="paint0_linear_4_126" x1="1798" y1="0" x2="1798" y2="781" gradientUnits="userSpaceOnUse">
<stop offset="0.0577409" stop-color="#0B0912" stop-opacity="0"/>
<stop offset="1" stop-color="#493C78" stop-opacity="0.69"/>
</linearGradient>
</defs>
</svg>
